<svg width="24" height="24" viewBox="0 0 24 24" fill="none" xmlns="http://www.w3.org/2000/svg">
<rect x="3.69092" y="1.99982" width="18.4615" height="20" rx="9.23077" fill="#383838"/>
<g clip-path="url(#clip0_231_67)">
<path d="M9.18411 14.4938C9.25095 14.4182 9.34287 14.3741 9.44035 14.3741H18.2807C18.4423 14.3741 18.523 14.5946 18.4088 14.7237L16.6625 16.6987C16.5956 16.7743 16.5037 16.8184 16.4062 16.8184H7.56588C7.40434 16.8184 7.32356 16.5979 7.43776 16.4688L9.18411 14.4938Z" fill="url(#paint0_linear_231_67)"/>
<path d="M9.18411 7.11988C9.25374 7.04428 9.34565 7.00018 9.44035 7.00018H18.2807C18.4423 7.00018 18.523 7.22067 18.4088 7.34982L16.6625 9.3248C16.5956 9.40039 16.5037 9.44449 16.4062 9.44449H7.56588C7.40434 9.44449 7.32356 9.224 7.43776 9.09485L9.18411 7.11988Z" fill="url(#paint1_linear_231_67)"/>
<path d="M16.6625 10.7832C16.5956 10.7076 16.5037 10.6635 16.4062 10.6635H7.56588C7.40434 10.6635 7.32356 10.884 7.43776 11.0132L9.18411 12.9881C9.25095 13.0637 9.34287 13.1078 9.44035 13.1078H18.2807C18.4423 13.1078 18.523 12.8873 18.4088 12.7582L16.6625 10.7832Z" fill="url(#paint2_linear_231_67)"/>
</g>
<rect y="0.470764" width="23.0585" height="23.0585" rx="11.5292" fill="#D61719"/>
<path fill-rule="evenodd" clip-rule="evenodd" d="M7.14271 12.747C5.52381 8.66614 4.25944 5.25061 4.32573 5.16174C4.41461 5.09545 7.05384 5.49464 10.1811 6.04901L15.903 7.09144L17.3888 8.57727L18.8526 10.0857L14.7275 15.1201C12.4433 17.8919 10.4694 20.1545 10.3363 20.1545C10.2032 20.1766 8.7837 16.8279 7.14271 12.747ZM10.602 14.2328C10.8013 12.6139 10.9344 11.2607 10.8902 11.2165C10.8635 11.2031 10.5292 10.9309 10.0392 10.5318L10.0392 10.5317C9.71765 10.2699 9.32908 9.95346 8.91632 9.61967C8.67445 9.42144 8.45375 9.24022 8.25258 9.07503C6.87114 7.94065 6.41035 7.56227 6.33576 7.62724C6.29842 7.65977 6.35783 7.80334 6.44697 8.01878L6.44697 8.01879C6.47008 8.07464 6.49518 8.13531 6.52112 8.20013C6.69886 8.62143 7.58565 10.8394 8.49502 13.1241C9.40439 15.3862 10.1581 17.2266 10.1807 17.2045C10.2028 17.1824 10.4021 15.8517 10.602 14.2328ZM16.5907 10.9061C16.6128 10.9503 15.504 12.3698 14.0845 14.0776C12.6875 15.7854 11.4899 17.227 11.4453 17.2712C11.4011 17.3154 11.3569 17.116 11.3569 16.8278C11.379 16.1183 11.9559 11.7266 12.0664 11.6603C12.1995 11.5714 16.5244 10.8393 16.5907 10.9061ZM15.4151 9.97474L16.9456 9.68651L16.2802 9.0207C15.526 8.2665 15.4597 8.28907 13.7962 9.75281C13.2197 10.263 13.1308 10.4181 13.4637 10.3293C13.5223 10.3186 13.618 10.3003 13.741 10.2768C14.1299 10.2024 14.7918 10.0758 15.4151 9.97474ZM14.1066 7.82294C14.2175 7.86761 13.6857 8.39988 12.9315 9.04264L12.9311 9.04312C12.1552 9.68587 11.4673 10.196 11.401 10.1739C11.1128 10.1518 7.18662 6.75841 7.36437 6.69211C7.49743 6.64744 13.3749 7.6452 14.1066 7.82294Z" fill="white"/>
<defs>
<linearGradient id="paint0_linear_231_67" x1="17.4362" y1="5.82041" x2="10.0523" y2="18.3262" gradientUnits="userSpaceOnUse">
<stop stop-color="#00FFA3"/>
<stop offset="1" stop-color="#DC1FFF"/>
</linearGradient>
<linearGradient id="paint1_linear_231_67" x1="14.761" y1="4.24084" x2="7.37712" y2="16.7467" gradientUnits="userSpaceOnUse">
<stop stop-color="#00FFA3"/>
<stop offset="1" stop-color="#DC1FFF"/>
</linearGradient>
<linearGradient id="paint2_linear_231_67" x1="16.0901" y1="5.0256" x2="8.70622" y2="17.5314" gradientUnits="userSpaceOnUse">
<stop stop-color="#00FFA3"/>
<stop offset="1" stop-color="#DC1FFF"/>
</linearGradient>
<clipPath id="clip0_231_67">
<rect width="11.0769" height="9.81818" fill="white" transform="translate(7.38477 7.00018)"/>
</clipPath>
</defs>
</svg>
