<svg width="24" height="24" viewBox="0 0 24 24" fill="none" xmlns="http://www.w3.org/2000/svg">
<rect width="24" height="24" rx="12" fill="#26A17B"/>
<path fill-rule="evenodd" clip-rule="evenodd" d="M13.4654 8.57857V10.3527L13.4673 10.3546C16.762 10.5063 19.2388 11.161 19.2388 11.9424C19.2388 12.7258 16.762 13.3786 13.4673 13.5303V19.2173H10.5316V13.5303C7.23305 13.3767 4.75049 12.7239 4.75049 11.9405C4.75049 11.1571 7.23113 10.5043 10.5316 10.3527V8.57857H6.47081V5.87329H17.5262V8.57857H13.4654ZM13.465 13.0427V13.0446V13.0465C16.3738 12.916 18.5453 12.4091 18.5453 11.8024C18.5453 11.1957 16.3757 10.6888 13.465 10.5582V12.5397C13.3805 12.5473 12.9274 12.5857 12.0212 12.5857C11.2666 12.5857 10.7194 12.5531 10.5293 12.5397V10.5563C7.61478 10.6849 5.4375 11.1937 5.4375 11.8005C5.4375 12.4091 7.61286 12.916 10.5293 13.0446V13.0427C10.7175 13.0523 11.2493 13.0734 12.0077 13.0734C12.9562 13.0734 13.3825 13.0485 13.465 13.0427Z" fill="white"/>
</svg>
